<?xml version="1.0" encoding="utf-8"?>
<!-- Generator: Adobe Illustrator 23.0.0, SVG Export Plug-In . SVG Version: 6.00 Build 0)  -->
<svg version="1.1" xmlns="http://www.w3.org/2000/svg" xmlns:xlink="http://www.w3.org/1999/xlink" x="0px" y="0px"
	 viewBox="0 0 213.6 213.6" style="enable-background:new 0 0 213.6 213.6;" xml:space="preserve">
<style type="text/css">
	.st0{display:none;}
	.st1{display:inline;fill:#02E8B0;}
	.st2{display:inline;fill:#00E9BE;}
	.st3{fill:#02E8B0;}
</style>
<g id="Layer_1" class="st0">
	<path class="st1" d="M100.6,0.8c6.9-3,11.8,3.4,16,7.6c7.6,6.4,14.8,13.3,21.6,20.5c3.9,4.3,2.3,12.1-3,14.5
		c-4.1,2.2-9.1,0.6-12.3-2.6c-8.2-7.9-16.1-16.2-24.7-23.8C93,12.7,94.1,3.3,100.6,0.8z"/>
	<path class="st1" d="M175.8,23.8c4.7-2.5,12.1-0.5,13.4,5.1c2,4.9-1.2,9.8-4.7,13.1c-7.6,7.5-15.1,15.3-22.5,23
		c-2.7,3.3-7.5,4.1-11.3,2.4c-5.5-2.3-7-10.6-2.9-14.8C157.3,43.1,165.5,32.4,175.8,23.8z"/>
	<path class="st1" d="M26.6,25.3c4.9-2.9,10.9-1,14.5,3c8.1,8.2,16.4,16.1,24.6,24.1c5.4,5,1.6,15.6-5.9,15.6
		c-6.3,1-9.7-5.3-13.9-8.7c-7.4-6.1-14.2-13-20.9-19.9C21.1,35.5,22.3,28.3,26.6,25.3z"/>
	<path class="st1" d="M31.8,73.6c8.2-3.1,16.1,7.1,11,14.2c-6,7.8-13.8,14.1-20.4,21.6c-3.9,4-7.5,10.1-13.9,9.3
		c-7.6-0.3-11.3-10.8-5.9-15.9C12.5,93.3,20.4,81.3,31.8,73.6z"/>
	<path class="st2" d="M199.3,96.3c5.6-3.7,14.1,0.5,14.2,7.3c0.8,6.4-5.5,9.7-8.9,14c-6.1,7.4-12.8,14.2-19.7,20.8
		c-5.1,4.8-14.5,1.4-15.4-5.5c-1.2-7.1,5.5-11.6,9.8-16.2C186.2,110.2,192.1,102.5,199.3,96.3z"/>
	<path class="st1" d="M54.1,146.6c5.4-3.3,13.7,0.6,13.8,7.2c1,6.4-5.3,9.8-8.8,14c-6.1,7.4-12.9,14.1-19.7,20.8
		c-4.5,4.5-14,2.3-15.2-4.1c-2.2-6.2,3.1-11.3,7.2-15.2C39.3,162,46.1,153.6,54.1,146.6z"/>
	<path class="st1" d="M150.9,146.3c3-1,6.8-1.1,9.4,1.1c9.4,9,19.5,17.3,28.3,26.9c2.7,2.8,3,7.4,1.2,10.8c-2.6,6-11.3,6.1-15.6,1.9
		c-8.6-8.1-16.9-16.6-25.5-24.7C143.4,158.1,144.7,148.7,150.9,146.3z"/>
	<path class="st1" d="M78.3,170.3c4.5-2.4,9.8-0.1,13,3.3c8.1,8.1,16.3,16.1,24.7,23.9c5.6,5.3,1.8,16-6,16.1
		c-6.3,0.7-9.6-5.5-13.9-9c-7.4-6.1-14.2-12.8-20.8-19.8C71.3,180.6,72.9,172.7,78.3,170.3z"/>
	<circle class="st1" cx="54.6" cy="9.3" r="9.3"/>
	<circle class="st1" cx="81.6" cy="34.6" r="9.3"/>
	<circle class="st1" cx="9.3" cy="57.3" r="9.3"/>
	<circle class="st1" cx="156.4" cy="9.3" r="9.3"/>
	<circle class="st1" cx="204.3" cy="55" r="9.3"/>
	<circle class="st1" cx="179" cy="81.6" r="9.3"/>
	<circle class="st1" cx="204.3" cy="156.4" r="9.3"/>
	<circle class="st1" cx="132" cy="179" r="9.3"/>
	<circle class="st1" cx="158.7" cy="204.4" r="9.3"/>
	<circle class="st1" cx="57.2" cy="204.4" r="9.3"/>
	<circle class="st1" cx="34.6" cy="131.8" r="9.3"/>
	<circle class="st1" cx="9.3" cy="158.7" r="9.3"/>
</g>
<g id="Layer_2">
	<g>
		<circle class="st3" cx="54.5" cy="9.4" r="9.4"/>
		<circle class="st3" cx="81.6" cy="34.6" r="9.4"/>
		<circle class="st3" cx="9.4" cy="57.3" r="9.4"/>
		<path class="st3" d="M52.2,65.9L25.6,39.3c-3.6-3.6-3.6-9.6,0-13.2l0,0c3.6-3.6,9.6-3.6,13.2,0l26.6,26.6c3.6,3.6,3.6,9.6,0,13.2
			l0,0C61.7,69.5,55.8,69.5,52.2,65.9z"/>
		<path class="st3" d="M42.5,89.2l-26.6,26.6c-3.6,3.6-9.6,3.6-13.2,0l0,0c-3.6-3.6-3.6-9.6,0-13.2L29.3,76c3.6-3.6,9.6-3.6,13.2,0
			l0,0C46.1,79.6,46.1,85.6,42.5,89.2z"/>
	</g>
	<g>
		<circle class="st3" cx="204.2" cy="54.5" r="9.4"/>
		<circle class="st3" cx="179" cy="81.6" r="9.4"/>
		<circle class="st3" cx="156.3" cy="9.4" r="9.4"/>
		<path class="st3" d="M147.7,52.2l26.6-26.6c3.6-3.6,9.6-3.6,13.2,0v0c3.6,3.6,3.6,9.6,0,13.2l-26.6,26.6c-3.6,3.6-9.6,3.6-13.2,0
			l0,0C144.1,61.7,144.1,55.8,147.7,52.2z"/>
		<path class="st3" d="M124.4,42.5L97.9,15.9c-3.6-3.6-3.6-9.6,0-13.2l0,0c3.6-3.6,9.6-3.6,13.2,0l26.6,26.6c3.6,3.6,3.6,9.6,0,13.2
			l0,0C134,46.1,128,46.1,124.4,42.5z"/>
	</g>
	<g>
		<circle class="st3" cx="9.4" cy="159.2" r="9.4"/>
		<circle class="st3" cx="34.6" cy="132.1" r="9.4"/>
		<circle class="st3" cx="57.3" cy="204.3" r="9.4"/>
		<path class="st3" d="M65.9,161.5l-26.6,26.6c-3.6,3.6-9.6,3.6-13.2,0l0,0c-3.6-3.6-3.6-9.6,0-13.2l26.6-26.6
			c3.6-3.6,9.6-3.6,13.2,0l0,0C69.5,152,69.5,157.9,65.9,161.5z"/>
		<path class="st3" d="M89.2,171.2l26.6,26.6c3.6,3.6,3.6,9.6,0,13.2l0,0c-3.6,3.6-9.6,3.6-13.2,0L76,184.4c-3.6-3.6-3.6-9.6,0-13.2
			h0C79.6,167.6,85.6,167.6,89.2,171.2z"/>
	</g>
	<g>
		<circle class="st3" cx="159.3" cy="204.3" r="9.4"/>
		<circle class="st3" cx="132.2" cy="179" r="9.4"/>
		<circle class="st3" cx="204.4" cy="156.3" r="9.4"/>
		<path class="st3" d="M161.6,147.7l26.6,26.6c3.6,3.6,3.6,9.6,0,13.2l0,0c-3.6,3.6-9.6,3.6-13.2,0l-26.6-26.6
			c-3.6-3.6-3.6-9.6,0-13.2v0C152.1,144.1,158,144.1,161.6,147.7z"/>
		<path class="st3" d="M171.3,124.4l26.6-26.6c3.6-3.6,9.6-3.6,13.2,0v0c3.6,3.6,3.6,9.6,0,13.2l-26.6,26.6c-3.6,3.6-9.6,3.6-13.2,0
			l0,0C167.7,134,167.7,128.1,171.3,124.4z"/>
	</g>
</g>
</svg>
