<?xml version="1.0" encoding="utf-8"?>
<!-- Generator: Adobe Illustrator 21.1.0, SVG Export Plug-In . SVG Version: 6.00 Build 0)  -->
<svg version="1.1" id="Layer_1" xmlns="http://www.w3.org/2000/svg" xmlns:xlink="http://www.w3.org/1999/xlink" x="0px" y="0px"
	 viewBox="0 0 525.9 213.7" style="enable-background:new 0 0 525.9 213.7;" xml:space="preserve">
<style type="text/css">
	.st0{fill:#212121;}
	.st1{fill:#02E8B0;}
	.st2{fill:#00E9BE;}
</style>
<g>
	<g>
		<path class="st0" d="M266.2,147.8h-12.5V89.1h12.5v4.6c4.1-5.3,9.1-5.9,12.1-5.9c7,0,11.3,3,13.7,5.5c3.5,3.5,5.8,8.8,5.8,15.1
			c0,6.7-2.3,11.7-6.2,15.6c-3.8,3.8-8,5.2-13.1,5.2c-7.7,0-11-3.9-12.3-5.7V147.8z M268.3,101.4c-2,2-3,4.8-3,7.1
			c0,2.4,1,5,2.8,6.9c1.8,1.8,4.4,3,7.1,3c2.3,0,4.9-1,6.7-2.7c2-1.9,3-4.9,3-7.4c0-2.9-1.2-5.4-3-7c-1.8-1.7-4.3-2.7-6.8-2.7
			C271.7,98.5,269.5,100.2,268.3,101.4z"/>
		<path class="st0" d="M335.4,89.1h12.5v38.8h-12.5v-4.7c-3.4,5.2-8.3,6-11.5,6c-5.6,0-10.3-1.4-14.5-5.9c-4.1-4.3-5.7-9.4-5.7-14.5
			c0-6.5,2.4-12.1,6-15.7c3.4-3.4,8.1-5.3,13.5-5.3c3.3,0,8.6,0.8,12.2,5.7V89.1z M319.5,101.3c-1.3,1.3-2.9,3.6-2.9,7
			s1.5,5.7,2.6,7c1.7,1.8,4.4,3,7.4,3c2.5,0,4.9-1,6.5-2.7c1.7-1.6,3-4,3-7.3c0-2.8-1-5.4-2.9-7.1c-1.9-1.8-4.7-2.7-7-2.7
			C323.7,98.5,321.1,99.7,319.5,101.3z"/>
		<path class="st0" d="M357.7,89.1h12.5v6.1c1.1-2.2,2.9-4.2,4.9-5.4c2.1-1.3,4.3-1.7,6.7-1.7c1.6,0,2.7,0.2,4.1,0.6l-0.7,11.7
			c-1.7-0.9-3.5-1.4-5.7-1.4c-2.7,0-4.7,1-6.3,2.6c-2.8,3-3,7.1-3,10.4v15.7h-12.5V89.1z"/>
		<path class="st0" d="M406.7,99.2v28.7h-12.5V99.2h-4.3V89.1h4.3V76.5h12.5V89h7.7v10.1L406.7,99.2L406.7,99.2z"/>
		<path class="st0" d="M427,65.2c4.1,0,7.3,3.2,7.3,7.3c0,4.1-3.2,7.3-7.3,7.3c-4.1,0-7.3-3.2-7.3-7.3
			C419.7,68.5,422.9,65.2,427,65.2z M433.2,89.1v38.8h-12.5V89.1H433.2z"/>
		<path class="st0" d="M473,101.3c-3-2.5-6.2-3-8.2-3c-3.9,0-6.3,1.9-7.1,2.8c-1.7,1.7-2.9,4.2-2.9,7.3c0,2.9,1,5.3,2.6,7
			c1.9,2.1,4.8,3.1,7.6,3.1c2.2,0,5.1-0.6,8-3v11.3c-3.3,1.8-6.4,2.3-9.9,2.3c-6.5,0-11.5-2.3-15-5.8c-3-2.9-6.1-7.7-6.1-14.8
			c0-6.6,2.8-11.8,6.4-15.3c4.3-4.1,9.5-5.5,14.8-5.5c3.4,0,6.5,0.6,9.8,2.2L473,101.3L473,101.3z"/>
		<path class="st0" d="M494.2,64.5v63.4h-12.5V64.5H494.2z"/>
	</g>
	
		<ellipse transform="matrix(0.6891 -0.7247 0.7247 0.6891 85.5685 405.1856)" class="st1" cx="515" cy="102.9" rx="10.9" ry="10.9"/>
	<path class="st1" d="M100.6,0.9c6.9-3,11.8,3.4,16,7.6c7.6,6.4,14.8,13.3,21.6,20.5c3.9,4.3,2.3,12.1-3,14.5
		c-4.1,2.2-9.1,0.6-12.3-2.6c-8.2-7.9-16.1-16.2-24.7-23.8C93,12.8,94.1,3.4,100.6,0.9z"/>
	<path class="st1" d="M175.8,23.8c4.7-2.5,12.1-0.5,13.4,5.1c2,4.9-1.2,9.8-4.7,13.1c-7.6,7.5-15.1,15.3-22.5,23
		c-2.7,3.3-7.5,4.1-11.3,2.4c-5.5-2.3-7-10.6-2.9-14.8C157.3,43.2,165.5,32.5,175.8,23.8z"/>
	<path class="st1" d="M26.6,25.4c4.9-2.9,10.9-1,14.5,3c8.1,8.2,16.4,16.1,24.6,24.1c5.4,5,1.6,15.6-5.9,15.6
		c-6.3,1-9.7-5.3-13.9-8.7c-7.4-6.1-14.2-13-20.9-19.9C21.1,35.6,22.3,28.4,26.6,25.4z"/>
	<path class="st1" d="M31.8,73.7c8.2-3.1,16.1,7.1,11,14.2c-6,7.8-13.8,14.1-20.4,21.6c-3.9,4-7.5,10.1-13.9,9.3
		c-7.6-0.3-11.3-10.8-5.9-15.9C12.5,93.4,20.4,81.4,31.8,73.7z"/>
	<path class="st2" d="M199.3,96.4c5.6-3.7,14.1,0.5,14.2,7.3c0.8,6.4-5.5,9.7-8.9,14c-6.1,7.4-12.8,14.2-19.7,20.8
		c-5.1,4.8-14.5,1.4-15.4-5.5c-1.2-7.1,5.5-11.6,9.8-16.2C186.2,110.3,192.1,102.6,199.3,96.4z"/>
	<path class="st1" d="M54.1,146.6c5.4-3.3,13.7,0.6,13.8,7.2c1,6.4-5.3,9.8-8.8,14c-6.1,7.4-12.9,14.1-19.7,20.8
		c-4.5,4.5-14,2.3-15.2-4.1c-2.2-6.2,3.1-11.3,7.2-15.2C39.3,162,46.1,153.7,54.1,146.6z"/>
	<path class="st1" d="M150.9,146.4c3-1,6.8-1.1,9.4,1.1c9.4,9,19.5,17.3,28.3,26.9c2.7,2.8,3,7.4,1.2,10.8c-2.6,6-11.3,6.1-15.6,1.9
		c-8.6-8.1-16.9-16.6-25.5-24.7C143.4,158.2,144.7,148.7,150.9,146.4z"/>
	<path class="st1" d="M78.3,170.4c4.5-2.4,9.8-0.1,13,3.3c8.1,8.1,16.3,16.1,24.7,23.9c5.6,5.3,1.8,16-6,16.1
		c-6.3,0.7-9.6-5.5-13.9-9c-7.4-6.1-14.2-12.8-20.8-19.8C71.3,180.7,72.9,172.7,78.3,170.4z"/>
	<circle class="st1" cx="54.6" cy="9.3" r="9.3"/>
	<circle class="st1" cx="81.6" cy="34.7" r="9.3"/>
	<circle class="st1" cx="9.3" cy="57.4" r="9.3"/>
	<circle class="st1" cx="156.4" cy="9.3" r="9.3"/>
	<circle class="st1" cx="204.3" cy="55" r="9.3"/>
	<circle class="st1" cx="179" cy="81.7" r="9.3"/>
	<circle class="st1" cx="204.3" cy="156.5" r="9.3"/>
	<circle class="st1" cx="132" cy="179.1" r="9.3"/>
	<circle class="st1" cx="158.7" cy="204.4" r="9.3"/>
	<circle class="st1" cx="57.2" cy="204.4" r="9.3"/>
	<circle class="st1" cx="34.6" cy="131.9" r="9.3"/>
	<circle class="st1" cx="9.3" cy="158.8" r="9.3"/>
</g>
</svg>
