<?xml version="1.0" encoding="utf-8"?>
<!-- Generator: Adobe Illustrator 23.0.0, SVG Export Plug-In . SVG Version: 6.00 Build 0)  -->
<svg version="1.1"
	 id="svg2" sodipodi:docname="particl-logo-dark.svg" xmlns:cc="http://creativecommons.org/ns#" xmlns:dc="http://purl.org/dc/elements/1.1/" xmlns:inkscape="http://www.inkscape.org/namespaces/inkscape" xmlns:rdf="http://www.w3.org/1999/02/22-rdf-syntax-ns#" xmlns:sodipodi="http://sodipodi.sourceforge.net/DTD/sodipodi-0.dtd" xmlns:svg="http://www.w3.org/2000/svg"
	 xmlns="http://www.w3.org/2000/svg" xmlns:xlink="http://www.w3.org/1999/xlink" x="0px" y="0px" viewBox="0 0 573.4 235.4"
	 style="enable-background:new 0 0 573.4 235.4;" xml:space="preserve">
<style type="text/css">
	.st0{fill:#212121;}
	.st1{fill:#02E8B0;}
</style>
<sodipodi:namedview  bordercolor="#666666" borderopacity="1" gridtolerance="10" guidetolerance="10" id="namedview4" inkscape:current-layer="g12" inkscape:cx="449.51935" inkscape:cy="-2.3124808" inkscape:pageopacity="0" inkscape:pageshadow="2" inkscape:window-height="994" inkscape:window-maximized="0" inkscape:window-width="1392" inkscape:window-x="391" inkscape:window-y="221" inkscape:zoom="0.8862002" objecttolerance="10" pagecolor="#ffffff" showgrid="false">
	</sodipodi:namedview>
<g>
	<g>
		<path id="path14" inkscape:connector-curvature="0" class="st0" d="M292.9,110.3c-2.2,2.2-3.3,5.3-3.3,7.9c0,2.7,1.1,5.5,3.1,7.6
			c2.1,2.1,4.9,3.3,7.9,3.3c2.6,0,5.4-1.1,7.4-3c2.2-2.1,3.4-5.4,3.4-8.2c0-3.2-1.3-5.9-3.3-7.8c-2.1-1.9-4.7-3-7.5-3
			C296.7,107.2,294.3,109,292.9,110.3L292.9,110.3z M290.6,161.7h-13.9v-65h13.9v5.1c4.5-5.9,10.1-6.5,13.4-6.5
			c7.7,0,12.5,3.4,15.3,6.1c3.9,3.9,6.4,9.7,6.4,16.7c0,7.4-2.6,13-6.8,17.2c-4.2,4.2-8.8,5.8-14.5,5.8c-8.6,0-12.2-4.4-13.7-6.3
			V161.7"/>
		<path id="path16" inkscape:connector-curvature="0" class="st0" d="M349.7,110.2c-1.5,1.5-3.2,4-3.2,7.8s1.6,6.3,2.9,7.7
			c1.9,2.1,4.9,3.4,8.2,3.4c2.8,0,5.4-1.2,7.3-3c1.8-1.7,3.4-4.5,3.4-8.1c0-3.1-1.2-5.9-3.2-7.9c-2.1-2.1-5.2-3-7.7-3
			C354.3,107.2,351.5,108.4,349.7,110.2L349.7,110.2z M367.2,96.6h13.9v43h-13.9v-5.2c-3.8,5.8-9.2,6.7-12.7,6.7
			c-6.2,0-11.4-1.6-16.1-6.5c-4.5-4.8-6.3-10.4-6.3-16.1c0-7.3,2.7-13.4,6.7-17.3c3.8-3.8,9-5.9,14.9-5.9c3.6,0,9.6,0.9,13.5,6.3
			L367.2,96.6"/>
		<path id="path18" inkscape:connector-curvature="0" class="st0" d="M391.9,96.6h13.9v6.8c1.2-2.4,3.2-4.6,5.4-5.9
			c2.3-1.5,4.7-1.8,7.4-1.8c1.7,0,3,0.2,4.5,0.7l-0.7,13c-1.8-1-3.9-1.6-6.3-1.6c-3,0-5.2,1.1-6.9,2.9c-3.1,3.3-3.4,7.9-3.4,11.5
			v17.4h-13.9L391.9,96.6"/>
		<path id="path20" inkscape:connector-curvature="0" class="st0" d="M446.2,107.8v31.8h-13.9v-31.8h-4.8V96.6h4.8V82.8h13.9v13.9
			h8.6v11.2L446.2,107.8"/>
		<path id="path22" inkscape:connector-curvature="0" class="st0" d="M475.6,96.6v43h-13.9v-43H475.6z M468.7,70.2
			c4.5,0,8.1,3.5,8.1,8.1c0,4.5-3.5,8.1-8.1,8.1s-8.1-3.5-8.1-8.1C460.6,73.9,464.2,70.2,468.7,70.2"/>
		<path id="path24" inkscape:connector-curvature="0" class="st0" d="M519.7,110.2c-3.4-2.8-6.8-3.3-9.1-3.3c-4.4,0-6.9,2.1-7.9,3.1
			c-1.8,1.8-3.2,4.6-3.2,8.1c0,3.2,1.2,5.9,2.9,7.7c2.1,2.3,5.3,3.5,8.4,3.5c2.4,0,5.7-0.7,8.8-3.4v12.5c-3.6,2.1-7.1,2.6-11,2.6
			c-7.3,0-12.7-2.6-16.7-6.4c-3.3-3.2-6.8-8.6-6.8-16.4c0-7.3,3.1-13.1,7.1-17c4.8-4.5,10.5-6.1,16.4-6.1c3.8,0,7.3,0.7,10.9,2.4
			L519.7,110.2"/>
		<path id="path26" inkscape:connector-curvature="0" class="st0" d="M543.2,69.4v70.2h-13.9V69.4H543.2"/>
	</g>
	<g>
		<g>
			<circle class="st1" cx="60.1" cy="10.3" r="10.3"/>
			<circle class="st1" cx="89.9" cy="38.2" r="10.3"/>
			<circle class="st1" cx="10.3" cy="63.1" r="10.3"/>
			<path class="st1" d="M57.5,72.6L28.2,43.3c-4-4-4-10.5,0-14.5l0,0c4-4,10.5-4,14.5,0L72,58.1c4,4,4,10.5,0,14.5l0,0
				C68,76.6,61.5,76.6,57.5,72.6z"/>
			<path class="st1" d="M46.8,98.3l-29.3,29.3c-4,4-10.5,4-14.5,0l0,0c-4-4-4-10.5,0-14.5l29.3-29.3c4-4,10.5-4,14.5,0l0,0
				C50.8,87.8,50.8,94.3,46.8,98.3z"/>
		</g>
		<g>
			<circle class="st1" cx="225.1" cy="60.1" r="10.3"/>
			<circle class="st1" cx="197.2" cy="89.9" r="10.3"/>
			<circle class="st1" cx="172.3" cy="10.3" r="10.3"/>
			<path class="st1" d="M162.8,57.5l29.3-29.3c4-4,10.5-4,14.5,0l0,0c4,4,4,10.5,0,14.5L177.3,72c-4,4-10.5,4-14.5,0l0,0
				C158.8,68,158.8,61.5,162.8,57.5z"/>
			<path class="st1" d="M137.1,46.8l-29.3-29.3c-4-4-4-10.5,0-14.5l0,0c4-4,10.5-4,14.5,0l29.3,29.3c4,4,4,10.5,0,14.5l0,0
				C147.6,50.8,141.1,50.8,137.1,46.8z"/>
		</g>
		<g>
			<circle class="st1" cx="10.3" cy="175.4" r="10.3"/>
			<circle class="st1" cx="38.2" cy="145.5" r="10.3"/>
			<circle class="st1" cx="63.1" cy="225.1" r="10.3"/>
			<path class="st1" d="M72.6,178l-29.3,29.3c-4,4-10.5,4-14.5,0l0,0c-4-4-4-10.5,0-14.5l29.3-29.3c4-4,10.5-4,14.5,0l0,0
				C76.6,167.4,76.6,174,72.6,178z"/>
			<path class="st1" d="M98.3,188.7l29.3,29.3c4,4,4,10.5,0,14.5l0,0c-4,4-10.5,4-14.5,0l-29.3-29.3c-4-4-4-10.5,0-14.5l0,0
				C87.8,184.7,94.3,184.7,98.3,188.7z"/>
		</g>
		<circle class="st1" cx="175.5" cy="225.1" r="10.3"/>
		<circle class="st1" cx="145.7" cy="197.2" r="10.3"/>
		<circle class="st1" cx="225.3" cy="172.3" r="10.3"/>
		<path class="st1" d="M178.1,162.8l29.3,29.3c4,4,4,10.5,0,14.5l0,0c-4,4-10.5,4-14.5,0l-29.3-29.3c-4-4-4-10.5,0-14.5l0,0
			C167.6,158.8,174.1,158.8,178.1,162.8z"/>
		<path class="st1" d="M188.8,137.1l29.3-29.3c4-4,10.5-4,14.5,0l0,0c4,4,4,10.5,0,14.5l-29.3,29.3c-4,4-10.5,4-14.5,0l0,0
			C184.8,147.7,184.8,141.1,188.8,137.1z"/>
	</g>
	<circle class="st1" cx="563.1" cy="115.5" r="10.3"/>
</g>
</svg>
